<svg xmlns="http://www.w3.org/2000/svg" viewBox="0 0 128 128" width="128" height="128">
  <!-- Background -->
  <rect width="128" height="128" rx="20" fill="#2c3e50"/>

  <!-- Document base -->
  <rect x="32" y="28" width="64" height="78" rx="4" fill="#f5f5f5"/>

  <!-- Document fold corner -->
  <path d="M80 28 L96 28 L96 44 L80 44 Z" fill="#e0e0e0"/>
  <path d="M80 28 L96 44 L80 44 Z" fill="#bdbdbd"/>

  <!-- Markdown text lines -->
  <rect x="42" y="48" width="36" height="4" rx="2" fill="#3498db"/>
  <rect x="42" y="58" width="44" height="4" rx="2" fill="#5dade2"/>
  <rect x="42" y="68" width="32" height="4" rx="2" fill="#85c1e9"/>
  <rect x="42" y="78" width="40" height="4" rx="2" fill="#aed6f1"/>

  <!-- Lock shackle -->
  <path d="M52 70 Q52 58 64 58 Q76 58 76 70"
        stroke="#f39c12"
        stroke-width="5"
        fill="none"
        stroke-linecap="round"/>

  <!-- Lock body -->
  <rect x="50" y="68" width="28" height="22" rx="3" fill="#f39c12"/>

  <!-- Keyhole -->
  <circle cx="64" cy="77" r="4" fill="#2c3e50"/>
  <rect x="62" y="79" width="4" height="7" rx="1" fill="#2c3e50"/>
</svg>
